<svg xmlns="http://www.w3.org/2000/svg" viewBox="0 0 512 512" role="img" aria-labelledby="title desc" data-content-kind="persona" data-persona-id="role-service-desk-agent" data-persona-type="role">
  <title id="title">Service-desk agent avatar</title>
  <desc id="desc">A friendly role avatar for service-desk agent, with a clear headset cue.</desc>
  <defs><linearGradient id="bg" x1="0" y1="0" x2="1" y2="1"><stop offset="0" stop-color="#E8D6EC"/><stop offset="1" stop-color="#6D3A72" stop-opacity=".55"/></linearGradient></defs>
  <rect width="512" height="512" fill="url(#bg)"/>
  <circle cx="70" cy="80" r="118" fill="#fff" opacity=".18"/><circle cx="458" cy="434" r="142" fill="#6D3A72" opacity=".12"/>
  <path d="M52 512c13-100 78-158 167-175h64c88 17 152 75 165 175z" fill="#6D3A72"/>
  <path d="M210 291h62v73c-8 16-19 23-31 23s-23-7-31-23z" fill="#8C5B3D"/>
  <ellipse cx="150" cy="220" rx="22" ry="34" fill="#8C5B3D"/><ellipse cx="332" cy="220" rx="22" ry="34" fill="#8C5B3D"/>
  <path d="M241 83c-63 0-96 47-96 124 0 75 39 130 96 130s96-55 96-130c0-77-33-124-96-124z" fill="#8C5B3D"/>
  <path d="M150 188c2-79 36-122 94-122 68 0 101 47 96 126-25-25-52-37-84-37-43 0-76 14-106 33z" fill="#382923"/>
  <ellipse cx="199" cy="216" rx="6" ry="8" fill="#342923"/><ellipse cx="283" cy="216" rx="6" ry="8" fill="#342923"/>
  <path d="M239 218c-4 20-3 34 7 40" fill="none" stroke="#8F604C" stroke-width="6" stroke-linecap="round"/>
  <path d="M207 280c21 14 47 14 68 0" fill="none" stroke="#814B50" stroke-width="7" stroke-linecap="round"/>
  <g fill="none" stroke="#fff" stroke-width="13" stroke-linecap="round" stroke-linejoin="round"><path d="M176 206a80 80 0 0 1 160 0v54"/><rect x="160" y="210" width="30" height="64" rx="14"/><rect x="322" y="210" width="30" height="64" rx="14"/><path d="M337 270c0 34-22 48-54 48"/><circle cx="274" cy="318" r="9"/></g>
</svg>
